<mxfile host="Electron" modified="2024-08-22T12:53:18.093Z" agent="Mozilla/5.0 (X11; Linux x86_64) AppleWebKit/537.36 (KHTML, like Gecko) draw.io/22.1.15 Chrome/120.0.6099.109 Electron/28.1.0 Safari/537.36" etag="IzRNsARv9Q-yYNCaVucQ" version="22.1.15" type="device">
  <diagram name="Page-1" id="-AsA6orFKc8SlClWfp2E">
    <mxGraphModel dx="4742" dy="-326" grid="1" gridSize="10" guides="1" tooltips="1" connect="1" arrows="1" fold="1" page="1" pageScale="1" pageWidth="827" pageHeight="1169" math="0" shadow="0">
      <root>
        <mxCell id="0" />
        <mxCell id="1" parent="0" />
        <mxCell id="ZzmtQTtpUodWMyB-p8XU-1" value="" style="shape=table;html=1;whiteSpace=wrap;startSize=0;container=1;collapsible=0;childLayout=tableLayout;fontStyle=1;align=left;fillColor=#33FFFF;strokeColor=#6c8ebf;fontColor=#000000;" vertex="1" parent="1">
          <mxGeometry x="-3280" y="1253" width="414" height="150" as="geometry" />
        </mxCell>
        <mxCell id="ZzmtQTtpUodWMyB-p8XU-2" value="" style="shape=partialRectangle;html=1;whiteSpace=wrap;collapsible=0;dropTarget=0;pointerEvents=0;fillColor=#33FFFF;top=0;left=0;bottom=0;right=0;points=[[0,0.5],[1,0.5]];portConstraint=eastwest;fontStyle=1;align=left;fontColor=#000000;" vertex="1" parent="ZzmtQTtpUodWMyB-p8XU-1">
          <mxGeometry width="414" height="30" as="geometry" />
        </mxCell>
        <mxCell id="ZzmtQTtpUodWMyB-p8XU-3" value="&lt;div&gt;&amp;nbsp;Version&amp;nbsp; &amp;nbsp; &amp;nbsp; &amp;nbsp;: ulong&lt;/div&gt;" style="shape=partialRectangle;html=1;whiteSpace=wrap;connectable=0;fillColor=#33FFFF;top=0;left=0;bottom=0;right=0;overflow=hidden;strokeColor=#001DBC;fontColor=#000000;fontStyle=1;align=left;" vertex="1" parent="ZzmtQTtpUodWMyB-p8XU-2">
          <mxGeometry width="414" height="30" as="geometry">
            <mxRectangle width="414" height="30" as="alternateBounds" />
          </mxGeometry>
        </mxCell>
        <mxCell id="ZzmtQTtpUodWMyB-p8XU-4" value="" style="shape=partialRectangle;html=1;whiteSpace=wrap;collapsible=0;dropTarget=0;pointerEvents=0;fillColor=#33FFFF;top=0;left=0;bottom=0;right=0;points=[[0,0.5],[1,0.5]];portConstraint=eastwest;fontStyle=1;align=left;fontColor=#000000;" vertex="1" parent="ZzmtQTtpUodWMyB-p8XU-1">
          <mxGeometry y="30" width="414" height="30" as="geometry" />
        </mxCell>
        <mxCell id="ZzmtQTtpUodWMyB-p8XU-5" value="&lt;div&gt;&amp;nbsp;Magic&amp;nbsp;&amp;nbsp;&amp;nbsp; : ulong&lt;br&gt;&lt;/div&gt;" style="shape=partialRectangle;html=1;whiteSpace=wrap;connectable=0;fillColor=#33FFFF;top=0;left=0;bottom=0;right=0;overflow=hidden;strokeColor=#001DBC;fontStyle=1;fontColor=#000000;align=left;" vertex="1" parent="ZzmtQTtpUodWMyB-p8XU-4">
          <mxGeometry width="414" height="30" as="geometry">
            <mxRectangle width="414" height="30" as="alternateBounds" />
          </mxGeometry>
        </mxCell>
        <mxCell id="ZzmtQTtpUodWMyB-p8XU-6" value="" style="shape=partialRectangle;html=1;whiteSpace=wrap;collapsible=0;dropTarget=0;pointerEvents=0;fillColor=#33FFFF;top=0;left=0;bottom=0;right=0;points=[[0,0.5],[1,0.5]];portConstraint=eastwest;fontStyle=1;align=left;fontColor=#000000;" vertex="1" parent="ZzmtQTtpUodWMyB-p8XU-1">
          <mxGeometry y="60" width="414" height="30" as="geometry" />
        </mxCell>
        <mxCell id="ZzmtQTtpUodWMyB-p8XU-7" value="&amp;nbsp;InfoClass : SUPERFETCH_INFORMATION_CLASS" style="shape=partialRectangle;html=1;whiteSpace=wrap;connectable=0;fillColor=#33FFFF;top=0;left=0;bottom=0;right=0;overflow=hidden;strokeColor=#001DBC;fontColor=#000000;fontStyle=1;align=left;" vertex="1" parent="ZzmtQTtpUodWMyB-p8XU-6">
          <mxGeometry width="414" height="30" as="geometry">
            <mxRectangle width="414" height="30" as="alternateBounds" />
          </mxGeometry>
        </mxCell>
        <mxCell id="ZzmtQTtpUodWMyB-p8XU-8" style="shape=partialRectangle;html=1;whiteSpace=wrap;collapsible=0;dropTarget=0;pointerEvents=0;fillColor=#33FFFF;top=0;left=0;bottom=0;right=0;points=[[0,0.5],[1,0.5]];portConstraint=eastwest;fontStyle=1;align=left;fontColor=#000000;" vertex="1" parent="ZzmtQTtpUodWMyB-p8XU-1">
          <mxGeometry y="90" width="414" height="30" as="geometry" />
        </mxCell>
        <mxCell id="ZzmtQTtpUodWMyB-p8XU-9" value="&amp;nbsp;&lt;b style=&quot;border-color: var(--border-color);&quot;&gt;PrivateSourcesQuery&lt;/b&gt;&amp;nbsp; &amp;nbsp;:&amp;nbsp;PF_PRIVSOURCE_QUERY_REQUEST" style="shape=partialRectangle;html=1;whiteSpace=wrap;connectable=0;fillColor=#23B0B0;top=0;left=0;bottom=0;right=0;overflow=hidden;strokeColor=#001DBC;fontStyle=1;fontColor=#000000;align=left;" vertex="1" parent="ZzmtQTtpUodWMyB-p8XU-8">
          <mxGeometry width="414" height="30" as="geometry">
            <mxRectangle width="414" height="30" as="alternateBounds" />
          </mxGeometry>
        </mxCell>
        <mxCell id="ZzmtQTtpUodWMyB-p8XU-10" style="shape=partialRectangle;html=1;whiteSpace=wrap;collapsible=0;dropTarget=0;pointerEvents=0;fillColor=#33FFFF;top=0;left=0;bottom=0;right=0;points=[[0,0.5],[1,0.5]];portConstraint=eastwest;fontStyle=1;align=left;fontColor=#000000;" vertex="1" parent="ZzmtQTtpUodWMyB-p8XU-1">
          <mxGeometry y="120" width="414" height="30" as="geometry" />
        </mxCell>
        <mxCell id="ZzmtQTtpUodWMyB-p8XU-11" value="&amp;nbsp;Length&amp;nbsp; &amp;nbsp; &amp;nbsp; &amp;nbsp; &amp;nbsp; &amp;nbsp;: ulong" style="shape=partialRectangle;html=1;whiteSpace=wrap;connectable=0;fillColor=#33FFFF;top=0;left=0;bottom=0;right=0;overflow=hidden;strokeColor=#001DBC;fontColor=#000000;fontStyle=1;align=left;" vertex="1" parent="ZzmtQTtpUodWMyB-p8XU-10">
          <mxGeometry width="414" height="30" as="geometry">
            <mxRectangle width="414" height="30" as="alternateBounds" />
          </mxGeometry>
        </mxCell>
        <mxCell id="ZzmtQTtpUodWMyB-p8XU-12" value="&lt;div style=&quot;border-color: var(--border-color); color: rgb(0, 0, 0); font-family: Helvetica; font-size: 12px; font-style: normal; font-variant-ligatures: normal; font-variant-caps: normal; font-weight: 700; letter-spacing: normal; orphans: 2; text-align: center; text-indent: 0px; text-transform: none; widows: 2; word-spacing: 0px; -webkit-text-stroke-width: 0px; background-color: rgb(251, 251, 251); text-decoration-thickness: initial; text-decoration-style: initial; text-decoration-color: initial;&quot;&gt;Structure&lt;/div&gt;&lt;div style=&quot;border-color: var(--border-color); color: rgb(0, 0, 0); font-family: Helvetica; font-size: 12px; font-style: normal; font-variant-ligatures: normal; font-variant-caps: normal; font-weight: 700; letter-spacing: normal; orphans: 2; text-align: center; text-indent: 0px; text-transform: none; widows: 2; word-spacing: 0px; -webkit-text-stroke-width: 0px; background-color: rgb(251, 251, 251); text-decoration-thickness: initial; text-decoration-style: initial; text-decoration-color: initial;&quot;&gt;&lt;pre style=&quot;border-color: var(--border-color);&quot;&gt;&lt;span style=&quot;border-color: var(--border-color); background-color: rgb(255, 255, 255);&quot;&gt;&lt;font color=&quot;#1e1e1e&quot; face=&quot;Consolas&quot; style=&quot;border-color: var(--border-color);&quot;&gt;SUPERFETCH_INFORMATION&lt;/font&gt;&lt;/span&gt;&lt;/pre&gt;&lt;/div&gt;" style="text;whiteSpace=wrap;html=1;" vertex="1" parent="1">
          <mxGeometry x="-3151" y="1197" width="210" height="90" as="geometry" />
        </mxCell>
        <mxCell id="ZzmtQTtpUodWMyB-p8XU-13" value="" style="endArrow=classic;html=1;rounded=0;fontSize=12;fontColor=#000000;edgeStyle=orthogonalEdgeStyle;exitX=1;exitY=0.5;exitDx=0;exitDy=0;fillColor=#d5e8d4;strokeColor=#0000FF;strokeWidth=4;entryX=0;entryY=0.5;entryDx=0;entryDy=0;" edge="1" parent="1" source="ZzmtQTtpUodWMyB-p8XU-8" target="ZzmtQTtpUodWMyB-p8XU-15">
          <mxGeometry width="50" height="50" relative="1" as="geometry">
            <mxPoint x="-2929" y="1450" as="sourcePoint" />
            <mxPoint x="-2718" y="1290" as="targetPoint" />
          </mxGeometry>
        </mxCell>
        <mxCell id="ZzmtQTtpUodWMyB-p8XU-14" value="" style="shape=table;html=1;whiteSpace=wrap;startSize=0;container=1;collapsible=0;childLayout=tableLayout;fontStyle=1;align=left;fillColor=#33FF33;strokeColor=#6c8ebf;fontColor=#000000;" vertex="1" parent="1">
          <mxGeometry x="-2800" y="1247.73" width="440" height="120" as="geometry" />
        </mxCell>
        <mxCell id="ZzmtQTtpUodWMyB-p8XU-15" value="" style="shape=partialRectangle;html=1;whiteSpace=wrap;collapsible=0;dropTarget=0;pointerEvents=0;fillColor=#33FF33;top=0;left=0;bottom=0;right=0;points=[[0,0.5],[1,0.5]];portConstraint=eastwest;fontStyle=1;align=left;fontColor=#000000;" vertex="1" parent="ZzmtQTtpUodWMyB-p8XU-14">
          <mxGeometry width="440" height="30" as="geometry" />
        </mxCell>
        <mxCell id="ZzmtQTtpUodWMyB-p8XU-16" value="&lt;div&gt;&amp;nbsp;Version&amp;nbsp; &amp;nbsp; &amp;nbsp; &amp;nbsp; &amp;nbsp; &amp;nbsp; : ULONG&lt;/div&gt;" style="shape=partialRectangle;html=1;whiteSpace=wrap;connectable=0;fillColor=#33FF33;top=0;left=0;bottom=0;right=0;overflow=hidden;strokeColor=#001DBC;fontColor=#000000;fontStyle=1;align=left;" vertex="1" parent="ZzmtQTtpUodWMyB-p8XU-15">
          <mxGeometry width="440" height="30" as="geometry">
            <mxRectangle width="440" height="30" as="alternateBounds" />
          </mxGeometry>
        </mxCell>
        <mxCell id="ZzmtQTtpUodWMyB-p8XU-17" value="" style="shape=partialRectangle;html=1;whiteSpace=wrap;collapsible=0;dropTarget=0;pointerEvents=0;fillColor=#33FF33;top=0;left=0;bottom=0;right=0;points=[[0,0.5],[1,0.5]];portConstraint=eastwest;fontStyle=1;align=left;fontColor=#000000;" vertex="1" parent="ZzmtQTtpUodWMyB-p8XU-14">
          <mxGeometry y="30" width="440" height="30" as="geometry" />
        </mxCell>
        <mxCell id="ZzmtQTtpUodWMyB-p8XU-18" value="&lt;div&gt;&amp;nbsp;Flags&amp;nbsp; &amp;nbsp; &amp;nbsp; &amp;nbsp; &amp;nbsp; &amp;nbsp; : ULONG&lt;br&gt;&lt;/div&gt;" style="shape=partialRectangle;html=1;whiteSpace=wrap;connectable=0;fillColor=#33FF33;top=0;left=0;bottom=0;right=0;overflow=hidden;strokeColor=#001DBC;fontStyle=1;fontColor=#000000;align=left;" vertex="1" parent="ZzmtQTtpUodWMyB-p8XU-17">
          <mxGeometry width="440" height="30" as="geometry">
            <mxRectangle width="440" height="30" as="alternateBounds" />
          </mxGeometry>
        </mxCell>
        <mxCell id="ZzmtQTtpUodWMyB-p8XU-19" value="" style="shape=partialRectangle;html=1;whiteSpace=wrap;collapsible=0;dropTarget=0;pointerEvents=0;fillColor=#33FF33;top=0;left=0;bottom=0;right=0;points=[[0,0.5],[1,0.5]];portConstraint=eastwest;fontStyle=1;align=left;fontColor=#000000;" vertex="1" parent="ZzmtQTtpUodWMyB-p8XU-14">
          <mxGeometry y="60" width="440" height="30" as="geometry" />
        </mxCell>
        <mxCell id="ZzmtQTtpUodWMyB-p8XU-20" value="&amp;nbsp;InfoCount &amp;nbsp; &amp;nbsp; &amp;nbsp; &amp;nbsp; &amp;nbsp; : SIZE_T" style="shape=partialRectangle;html=1;whiteSpace=wrap;connectable=0;fillColor=#33FF33;top=0;left=0;bottom=0;right=0;overflow=hidden;strokeColor=#001DBC;fontColor=#000000;fontStyle=1;align=left;" vertex="1" parent="ZzmtQTtpUodWMyB-p8XU-19">
          <mxGeometry width="440" height="30" as="geometry">
            <mxRectangle width="440" height="30" as="alternateBounds" />
          </mxGeometry>
        </mxCell>
        <mxCell id="ZzmtQTtpUodWMyB-p8XU-21" style="shape=partialRectangle;html=1;whiteSpace=wrap;collapsible=0;dropTarget=0;pointerEvents=0;fillColor=#33FF33;top=0;left=0;bottom=0;right=0;points=[[0,0.5],[1,0.5]];portConstraint=eastwest;fontStyle=1;align=left;fontColor=#000000;" vertex="1" parent="ZzmtQTtpUodWMyB-p8XU-14">
          <mxGeometry y="90" width="440" height="30" as="geometry" />
        </mxCell>
        <mxCell id="ZzmtQTtpUodWMyB-p8XU-22" value="&amp;nbsp;InfoArray : PF_PRIVSOURCE_INFO&amp;nbsp;" style="shape=partialRectangle;html=1;whiteSpace=wrap;connectable=0;fillColor=#28C728;top=0;left=0;bottom=0;right=0;overflow=hidden;strokeColor=#001DBC;fontStyle=1;fontColor=#000000;align=left;" vertex="1" parent="ZzmtQTtpUodWMyB-p8XU-21">
          <mxGeometry width="440" height="30" as="geometry">
            <mxRectangle width="440" height="30" as="alternateBounds" />
          </mxGeometry>
        </mxCell>
        <mxCell id="ZzmtQTtpUodWMyB-p8XU-23" value="&lt;div style=&quot;font-size: 12px;&quot;&gt;Structure&lt;/div&gt;&lt;div style=&quot;&quot;&gt;&lt;pre style=&quot;&quot;&gt;PF_PRIVSOURCE_QUERY_REQUEST&lt;font face=&quot;Consolas&quot;&gt;&lt;br&gt;&lt;/font&gt;&lt;/pre&gt;&lt;/div&gt;" style="text;strokeColor=none;fillColor=none;html=1;fontSize=12;fontStyle=1;verticalAlign=middle;align=center;" vertex="1" parent="1">
          <mxGeometry x="-2795.5" y="1186.25" width="230" height="70" as="geometry" />
        </mxCell>
        <mxCell id="ZzmtQTtpUodWMyB-p8XU-24" value="" style="shape=table;html=1;whiteSpace=wrap;startSize=0;container=1;collapsible=0;childLayout=tableLayout;fontStyle=1;align=left;fillColor=#33FFFF;strokeColor=#FFFF00;fontColor=#000000;" vertex="1" parent="1">
          <mxGeometry x="-2260" y="1270" width="300" height="480.01" as="geometry" />
        </mxCell>
        <mxCell id="ZzmtQTtpUodWMyB-p8XU-25" value="" style="shape=partialRectangle;html=1;whiteSpace=wrap;collapsible=0;dropTarget=0;pointerEvents=0;fillColor=#FFFF66;top=0;left=0;bottom=0;right=0;points=[[0,0.5],[1,0.5]];portConstraint=eastwest;fontStyle=1;align=left;fontColor=#000000;" vertex="1" parent="ZzmtQTtpUodWMyB-p8XU-24">
          <mxGeometry width="300" height="30" as="geometry" />
        </mxCell>
        <mxCell id="ZzmtQTtpUodWMyB-p8XU-26" value="&amp;nbsp;DbInfo&amp;nbsp;: &lt;span style=&quot;&quot;&gt;&lt;span style=&quot;&quot;&gt;&amp;nbsp;&amp;nbsp;&amp;nbsp;&amp;nbsp;&lt;/span&gt;&lt;/span&gt;PFS_PRIVATE_PAGE_SOURCE&amp;nbsp;" style="shape=partialRectangle;html=1;whiteSpace=wrap;connectable=0;fillColor=#FFFF99;top=0;left=0;bottom=0;right=0;overflow=hidden;strokeColor=#001DBC;fontColor=#000000;fontStyle=1;align=left;" vertex="1" parent="ZzmtQTtpUodWMyB-p8XU-25">
          <mxGeometry width="300" height="30" as="geometry">
            <mxRectangle width="300" height="30" as="alternateBounds" />
          </mxGeometry>
        </mxCell>
        <mxCell id="ZzmtQTtpUodWMyB-p8XU-27" value="" style="shape=partialRectangle;html=1;whiteSpace=wrap;collapsible=0;dropTarget=0;pointerEvents=0;fillColor=#FFFF66;top=0;left=0;bottom=0;right=0;points=[[0,0.5],[1,0.5]];portConstraint=eastwest;fontStyle=1;align=left;fontColor=#000000;" vertex="1" parent="ZzmtQTtpUodWMyB-p8XU-24">
          <mxGeometry y="30" width="300" height="30" as="geometry" />
        </mxCell>
        <mxCell id="ZzmtQTtpUodWMyB-p8XU-28" value="&lt;div&gt;&amp;nbsp;&lt;font color=&quot;#ff0000&quot;&gt;EProcess :&amp;nbsp;PPF_PROCESS&lt;/font&gt;&lt;br&gt;&lt;/div&gt;" style="shape=partialRectangle;html=1;whiteSpace=wrap;connectable=0;fillColor=#FFFF66;top=0;left=0;bottom=0;right=0;overflow=hidden;strokeColor=#001DBC;fontStyle=1;fontColor=#000000;align=left;" vertex="1" parent="ZzmtQTtpUodWMyB-p8XU-27">
          <mxGeometry width="300" height="30" as="geometry">
            <mxRectangle width="300" height="30" as="alternateBounds" />
          </mxGeometry>
        </mxCell>
        <mxCell id="ZzmtQTtpUodWMyB-p8XU-29" value="" style="shape=partialRectangle;html=1;whiteSpace=wrap;collapsible=0;dropTarget=0;pointerEvents=0;fillColor=#33FFFF;top=0;left=0;bottom=0;right=0;points=[[0,0.5],[1,0.5]];portConstraint=eastwest;fontStyle=1;align=left;fontColor=#000000;" vertex="1" parent="ZzmtQTtpUodWMyB-p8XU-24">
          <mxGeometry y="60" width="300" height="30" as="geometry" />
        </mxCell>
        <mxCell id="ZzmtQTtpUodWMyB-p8XU-30" value="&amp;nbsp;WorkingSetPrivateSize :&amp;nbsp;SIZE_T" style="shape=partialRectangle;html=1;whiteSpace=wrap;connectable=0;fillColor=#FFFF00;top=0;left=0;bottom=0;right=0;overflow=hidden;strokeColor=#001DBC;fontColor=#000000;fontStyle=1;align=left;" vertex="1" parent="ZzmtQTtpUodWMyB-p8XU-29">
          <mxGeometry width="300" height="30" as="geometry">
            <mxRectangle width="300" height="30" as="alternateBounds" />
          </mxGeometry>
        </mxCell>
        <mxCell id="ZzmtQTtpUodWMyB-p8XU-31" style="shape=partialRectangle;html=1;whiteSpace=wrap;collapsible=0;dropTarget=0;pointerEvents=0;fillColor=#33FFFF;top=0;left=0;bottom=0;right=0;points=[[0,0.5],[1,0.5]];portConstraint=eastwest;fontStyle=1;align=left;fontColor=#000000;" vertex="1" parent="ZzmtQTtpUodWMyB-p8XU-24">
          <mxGeometry y="90" width="300" height="30" as="geometry" />
        </mxCell>
        <mxCell id="ZzmtQTtpUodWMyB-p8XU-32" value="&amp;nbsp;NumberOfPrivatePages :&amp;nbsp;SIZE_T" style="shape=partialRectangle;html=1;whiteSpace=wrap;connectable=0;fillColor=#FFFF00;top=0;left=0;bottom=0;right=0;overflow=hidden;strokeColor=#001DBC;fontStyle=1;fontColor=#000000;align=left;" vertex="1" parent="ZzmtQTtpUodWMyB-p8XU-31">
          <mxGeometry width="300" height="30" as="geometry">
            <mxRectangle width="300" height="30" as="alternateBounds" />
          </mxGeometry>
        </mxCell>
        <mxCell id="ZzmtQTtpUodWMyB-p8XU-33" style="shape=partialRectangle;html=1;whiteSpace=wrap;collapsible=0;dropTarget=0;pointerEvents=0;fillColor=#33FFFF;top=0;left=0;bottom=0;right=0;points=[[0,0.5],[1,0.5]];portConstraint=eastwest;fontStyle=1;align=left;fontColor=#000000;" vertex="1" parent="ZzmtQTtpUodWMyB-p8XU-24">
          <mxGeometry y="120" width="300" height="30" as="geometry" />
        </mxCell>
        <mxCell id="ZzmtQTtpUodWMyB-p8XU-34" value="&amp;nbsp;SessionID :&amp;nbsp;ULONG" style="shape=partialRectangle;html=1;whiteSpace=wrap;connectable=0;fillColor=#FFFF00;top=0;left=0;bottom=0;right=0;overflow=hidden;strokeColor=#001DBC;fontColor=#000000;fontStyle=1;align=left;" vertex="1" parent="ZzmtQTtpUodWMyB-p8XU-33">
          <mxGeometry width="300" height="30" as="geometry">
            <mxRectangle width="300" height="30" as="alternateBounds" />
          </mxGeometry>
        </mxCell>
        <mxCell id="ZzmtQTtpUodWMyB-p8XU-35" style="shape=partialRectangle;html=1;whiteSpace=wrap;collapsible=0;dropTarget=0;pointerEvents=0;fillColor=#33FFFF;top=0;left=0;bottom=0;right=0;points=[[0,0.5],[1,0.5]];portConstraint=eastwest;fontStyle=1;align=left;fontColor=#000000;" vertex="1" parent="ZzmtQTtpUodWMyB-p8XU-24">
          <mxGeometry y="150" width="300" height="30" as="geometry" />
        </mxCell>
        <mxCell id="ZzmtQTtpUodWMyB-p8XU-36" value="&amp;nbsp;ImageName[16] : CHAR" style="shape=partialRectangle;html=1;whiteSpace=wrap;connectable=0;fillColor=#FFFF00;top=0;left=0;bottom=0;right=0;overflow=hidden;strokeColor=#001DBC;fontStyle=1;fontColor=#000000;align=left;" vertex="1" parent="ZzmtQTtpUodWMyB-p8XU-35">
          <mxGeometry width="300" height="30" as="geometry">
            <mxRectangle width="300" height="30" as="alternateBounds" />
          </mxGeometry>
        </mxCell>
        <mxCell id="ZzmtQTtpUodWMyB-p8XU-37" style="shape=partialRectangle;html=1;whiteSpace=wrap;collapsible=0;dropTarget=0;pointerEvents=0;fillColor=#33FFFF;top=0;left=0;bottom=0;right=0;points=[[0,0.5],[1,0.5]];portConstraint=eastwest;fontStyle=1;align=left;fontColor=#000000;" vertex="1" parent="ZzmtQTtpUodWMyB-p8XU-24">
          <mxGeometry y="180" width="300" height="30" as="geometry" />
        </mxCell>
        <mxCell id="ZzmtQTtpUodWMyB-p8XU-38" value="&amp;nbsp;WsSwapPages :&amp;nbsp;ULONG_PTR" style="shape=partialRectangle;html=1;whiteSpace=wrap;connectable=0;fillColor=#FFFF00;top=0;left=0;bottom=0;right=0;overflow=hidden;strokeColor=#001DBC;fontStyle=1;fontColor=#000000;align=left;" vertex="1" parent="ZzmtQTtpUodWMyB-p8XU-37">
          <mxGeometry width="300" height="30" as="geometry">
            <mxRectangle width="300" height="30" as="alternateBounds" />
          </mxGeometry>
        </mxCell>
        <mxCell id="ZzmtQTtpUodWMyB-p8XU-39" style="shape=partialRectangle;html=1;whiteSpace=wrap;collapsible=0;dropTarget=0;pointerEvents=0;fillColor=#33FFFF;top=0;left=0;bottom=0;right=0;points=[[0,0.5],[1,0.5]];portConstraint=eastwest;fontStyle=1;align=left;fontColor=#000000;" vertex="1" parent="ZzmtQTtpUodWMyB-p8XU-24">
          <mxGeometry y="210" width="300" height="30" as="geometry" />
        </mxCell>
        <mxCell id="ZzmtQTtpUodWMyB-p8XU-40" value="&amp;nbsp;SessionPagedPoolPages :&amp;nbsp;ULONG_PTR" style="shape=partialRectangle;html=1;whiteSpace=wrap;connectable=0;fillColor=#FFFF00;top=0;left=0;bottom=0;right=0;overflow=hidden;strokeColor=#001DBC;fontStyle=1;fontColor=#000000;align=left;" vertex="1" parent="ZzmtQTtpUodWMyB-p8XU-39">
          <mxGeometry width="300" height="30" as="geometry">
            <mxRectangle width="300" height="30" as="alternateBounds" />
          </mxGeometry>
        </mxCell>
        <mxCell id="ZzmtQTtpUodWMyB-p8XU-41" style="shape=partialRectangle;html=1;whiteSpace=wrap;collapsible=0;dropTarget=0;pointerEvents=0;fillColor=#33FFFF;top=0;left=0;bottom=0;right=0;points=[[0,0.5],[1,0.5]];portConstraint=eastwest;fontStyle=1;align=left;fontColor=#000000;" vertex="1" parent="ZzmtQTtpUodWMyB-p8XU-24">
          <mxGeometry y="240" width="300" height="30" as="geometry" />
        </mxCell>
        <mxCell id="ZzmtQTtpUodWMyB-p8XU-42" value="&amp;nbsp;StoreSizePages :&amp;nbsp;ULONG_PTR" style="shape=partialRectangle;html=1;whiteSpace=wrap;connectable=0;fillColor=#FFFF00;top=0;left=0;bottom=0;right=0;overflow=hidden;strokeColor=#001DBC;fontStyle=1;fontColor=#000000;align=left;" vertex="1" parent="ZzmtQTtpUodWMyB-p8XU-41">
          <mxGeometry width="300" height="30" as="geometry">
            <mxRectangle width="300" height="30" as="alternateBounds" />
          </mxGeometry>
        </mxCell>
        <mxCell id="ZzmtQTtpUodWMyB-p8XU-43" style="shape=partialRectangle;html=1;whiteSpace=wrap;collapsible=0;dropTarget=0;pointerEvents=0;fillColor=#33FFFF;top=0;left=0;bottom=0;right=0;points=[[0,0.5],[1,0.5]];portConstraint=eastwest;fontStyle=1;align=left;fontColor=#000000;" vertex="1" parent="ZzmtQTtpUodWMyB-p8XU-24">
          <mxGeometry y="270" width="300" height="30" as="geometry" />
        </mxCell>
        <mxCell id="ZzmtQTtpUodWMyB-p8XU-44" value="&amp;nbsp;WsTotalPages :&amp;nbsp;ULONG_PTR" style="shape=partialRectangle;html=1;whiteSpace=wrap;connectable=0;fillColor=#FFFF00;top=0;left=0;bottom=0;right=0;overflow=hidden;strokeColor=#001DBC;fontStyle=1;fontColor=#000000;align=left;" vertex="1" parent="ZzmtQTtpUodWMyB-p8XU-43">
          <mxGeometry width="300" height="30" as="geometry">
            <mxRectangle width="300" height="30" as="alternateBounds" />
          </mxGeometry>
        </mxCell>
        <mxCell id="ZzmtQTtpUodWMyB-p8XU-45" style="shape=partialRectangle;html=1;whiteSpace=wrap;collapsible=0;dropTarget=0;pointerEvents=0;fillColor=#33FFFF;top=0;left=0;bottom=0;right=0;points=[[0,0.5],[1,0.5]];portConstraint=eastwest;fontStyle=1;align=left;fontColor=#000000;" vertex="1" parent="ZzmtQTtpUodWMyB-p8XU-24">
          <mxGeometry y="300" width="300" height="30" as="geometry" />
        </mxCell>
        <mxCell id="ZzmtQTtpUodWMyB-p8XU-46" value="&amp;nbsp;DeepFreezeTimeMs :&amp;nbsp;ULONG" style="shape=partialRectangle;html=1;whiteSpace=wrap;connectable=0;fillColor=#FFFF00;top=0;left=0;bottom=0;right=0;overflow=hidden;strokeColor=#001DBC;fontStyle=1;fontColor=#000000;align=left;" vertex="1" parent="ZzmtQTtpUodWMyB-p8XU-45">
          <mxGeometry width="300" height="30" as="geometry">
            <mxRectangle width="300" height="30" as="alternateBounds" />
          </mxGeometry>
        </mxCell>
        <mxCell id="ZzmtQTtpUodWMyB-p8XU-47" style="shape=partialRectangle;html=1;whiteSpace=wrap;collapsible=0;dropTarget=0;pointerEvents=0;fillColor=#33FFFF;top=0;left=0;bottom=0;right=0;points=[[0,0.5],[1,0.5]];portConstraint=eastwest;fontStyle=1;align=left;fontColor=#000000;" vertex="1" parent="ZzmtQTtpUodWMyB-p8XU-24">
          <mxGeometry y="330" width="300" height="30" as="geometry" />
        </mxCell>
        <mxCell id="ZzmtQTtpUodWMyB-p8XU-48" value="&amp;nbsp;ModernApp :&amp;nbsp;ULONG" style="shape=partialRectangle;html=1;whiteSpace=wrap;connectable=0;fillColor=#FFFF00;top=0;left=0;bottom=0;right=0;overflow=hidden;strokeColor=#001DBC;fontStyle=1;fontColor=#000000;align=left;" vertex="1" parent="ZzmtQTtpUodWMyB-p8XU-47">
          <mxGeometry width="300" height="30" as="geometry">
            <mxRectangle width="300" height="30" as="alternateBounds" />
          </mxGeometry>
        </mxCell>
        <mxCell id="ZzmtQTtpUodWMyB-p8XU-49" style="shape=partialRectangle;html=1;whiteSpace=wrap;collapsible=0;dropTarget=0;pointerEvents=0;fillColor=#33FFFF;top=0;left=0;bottom=0;right=0;points=[[0,0.5],[1,0.5]];portConstraint=eastwest;fontStyle=1;align=left;fontColor=#000000;" vertex="1" parent="ZzmtQTtpUodWMyB-p8XU-24">
          <mxGeometry y="360" width="300" height="30" as="geometry" />
        </mxCell>
        <mxCell id="ZzmtQTtpUodWMyB-p8XU-50" value="&amp;nbsp;DeepFrozen :&amp;nbsp;ULONG" style="shape=partialRectangle;html=1;whiteSpace=wrap;connectable=0;fillColor=#FFFF00;top=0;left=0;bottom=0;right=0;overflow=hidden;strokeColor=#001DBC;fontStyle=1;fontColor=#000000;align=left;" vertex="1" parent="ZzmtQTtpUodWMyB-p8XU-49">
          <mxGeometry width="300" height="30" as="geometry">
            <mxRectangle width="300" height="30" as="alternateBounds" />
          </mxGeometry>
        </mxCell>
        <mxCell id="ZzmtQTtpUodWMyB-p8XU-51" style="shape=partialRectangle;html=1;whiteSpace=wrap;collapsible=0;dropTarget=0;pointerEvents=0;fillColor=#33FFFF;top=0;left=0;bottom=0;right=0;points=[[0,0.5],[1,0.5]];portConstraint=eastwest;fontStyle=1;align=left;fontColor=#000000;" vertex="1" parent="ZzmtQTtpUodWMyB-p8XU-24">
          <mxGeometry y="390" width="300" height="30" as="geometry" />
        </mxCell>
        <mxCell id="ZzmtQTtpUodWMyB-p8XU-52" value="&amp;nbsp;Foreground :&amp;nbsp;ULONG" style="shape=partialRectangle;html=1;whiteSpace=wrap;connectable=0;fillColor=#FFFF00;top=0;left=0;bottom=0;right=0;overflow=hidden;strokeColor=#001DBC;fontStyle=1;fontColor=#000000;align=left;" vertex="1" parent="ZzmtQTtpUodWMyB-p8XU-51">
          <mxGeometry width="300" height="30" as="geometry">
            <mxRectangle width="300" height="30" as="alternateBounds" />
          </mxGeometry>
        </mxCell>
        <mxCell id="ZzmtQTtpUodWMyB-p8XU-53" style="shape=partialRectangle;html=1;whiteSpace=wrap;collapsible=0;dropTarget=0;pointerEvents=0;fillColor=#33FFFF;top=0;left=0;bottom=0;right=0;points=[[0,0.5],[1,0.5]];portConstraint=eastwest;fontStyle=1;align=left;fontColor=#000000;" vertex="1" parent="ZzmtQTtpUodWMyB-p8XU-24">
          <mxGeometry y="420" width="300" height="30" as="geometry" />
        </mxCell>
        <mxCell id="ZzmtQTtpUodWMyB-p8XU-54" value="&amp;nbsp;PerProcessStore :&amp;nbsp;ULONG" style="shape=partialRectangle;html=1;whiteSpace=wrap;connectable=0;fillColor=#FFFF00;top=0;left=0;bottom=0;right=0;overflow=hidden;strokeColor=#001DBC;fontStyle=1;fontColor=#000000;align=left;" vertex="1" parent="ZzmtQTtpUodWMyB-p8XU-53">
          <mxGeometry width="300" height="30" as="geometry">
            <mxRectangle width="300" height="30" as="alternateBounds" />
          </mxGeometry>
        </mxCell>
        <mxCell id="ZzmtQTtpUodWMyB-p8XU-55" style="shape=partialRectangle;html=1;whiteSpace=wrap;collapsible=0;dropTarget=0;pointerEvents=0;fillColor=#33FFFF;top=0;left=0;bottom=0;right=0;points=[[0,0.5],[1,0.5]];portConstraint=eastwest;fontStyle=1;align=left;fontColor=#000000;" vertex="1" parent="ZzmtQTtpUodWMyB-p8XU-24">
          <mxGeometry y="450" width="300" height="30" as="geometry" />
        </mxCell>
        <mxCell id="ZzmtQTtpUodWMyB-p8XU-56" value="&amp;nbsp;Spare :&amp;nbsp;ULONG" style="shape=partialRectangle;html=1;whiteSpace=wrap;connectable=0;fillColor=#FFFF00;top=0;left=0;bottom=0;right=0;overflow=hidden;strokeColor=#001DBC;fontStyle=1;fontColor=#000000;align=left;" vertex="1" parent="ZzmtQTtpUodWMyB-p8XU-55">
          <mxGeometry width="300" height="30" as="geometry">
            <mxRectangle width="300" height="30" as="alternateBounds" />
          </mxGeometry>
        </mxCell>
        <mxCell id="ZzmtQTtpUodWMyB-p8XU-57" value="&lt;div style=&quot;font-size: 12px;&quot;&gt;Structure&lt;/div&gt;&lt;div style=&quot;font-size: 12px;&quot;&gt;&lt;pre style=&quot;font-family: Consolas; font-size: 12px;&quot;&gt;PF_PRIVSOURCE_INFO&lt;br&gt;&lt;/pre&gt;&lt;/div&gt;" style="text;strokeColor=none;fillColor=none;html=1;fontSize=12;fontStyle=1;verticalAlign=middle;align=center;" vertex="1" parent="1">
          <mxGeometry x="-2190" y="1217" width="170" height="70" as="geometry" />
        </mxCell>
        <mxCell id="ZzmtQTtpUodWMyB-p8XU-58" value="InfoArray[0]" style="endArrow=classic;html=1;rounded=0;fontSize=12;fontColor=#000000;edgeStyle=orthogonalEdgeStyle;fillColor=#d5e8d4;strokeColor=#0000FF;strokeWidth=4;entryX=0;entryY=0.5;entryDx=0;entryDy=0;" edge="1" parent="1" source="ZzmtQTtpUodWMyB-p8XU-21" target="ZzmtQTtpUodWMyB-p8XU-25">
          <mxGeometry x="0.1287" width="50" height="50" relative="1" as="geometry">
            <mxPoint x="-2250" y="1388" as="sourcePoint" />
            <mxPoint x="-2680" y="1278" as="targetPoint" />
            <mxPoint as="offset" />
          </mxGeometry>
        </mxCell>
        <mxCell id="ZzmtQTtpUodWMyB-p8XU-59" value="(Process) Private Source Entry" style="text;whiteSpace=wrap;" vertex="1" parent="1">
          <mxGeometry x="-2140" y="1750.0100000000002" width="210" height="40" as="geometry" />
        </mxCell>
        <mxCell id="ZzmtQTtpUodWMyB-p8XU-60" value="" style="shape=table;html=1;whiteSpace=wrap;startSize=0;container=1;collapsible=0;childLayout=tableLayout;fontStyle=1;align=left;fillColor=#E6D0DE;strokeColor=#6c8ebf;fontColor=#000000;" vertex="1" parent="1">
          <mxGeometry x="-1899" y="1273" width="289" height="85" as="geometry" />
        </mxCell>
        <mxCell id="ZzmtQTtpUodWMyB-p8XU-61" value="" style="shape=partialRectangle;html=1;whiteSpace=wrap;collapsible=0;dropTarget=0;pointerEvents=0;fillColor=#33FF33;top=0;left=0;bottom=0;right=0;points=[[0,0.5],[1,0.5]];portConstraint=eastwest;fontStyle=1;align=left;fontColor=#000000;" vertex="1" parent="ZzmtQTtpUodWMyB-p8XU-60">
          <mxGeometry width="289" height="20" as="geometry" />
        </mxCell>
        <mxCell id="ZzmtQTtpUodWMyB-p8XU-62" value="&lt;div&gt;&amp;nbsp;Type :&amp;nbsp;PFS_PRIVATE_PAGE_SOURCE_TYPE&lt;/div&gt;" style="shape=partialRectangle;html=1;whiteSpace=wrap;connectable=0;fillColor=#FCE5F4;top=0;left=0;bottom=0;right=0;overflow=hidden;strokeColor=#001DBC;fontColor=#000000;fontStyle=1;align=left;" vertex="1" parent="ZzmtQTtpUodWMyB-p8XU-61">
          <mxGeometry width="289" height="20" as="geometry">
            <mxRectangle width="289" height="20" as="alternateBounds" />
          </mxGeometry>
        </mxCell>
        <mxCell id="ZzmtQTtpUodWMyB-p8XU-63" value="" style="shape=partialRectangle;html=1;whiteSpace=wrap;collapsible=0;dropTarget=0;pointerEvents=0;fillColor=#33FF33;top=0;left=0;bottom=0;right=0;points=[[0,0.5],[1,0.5]];portConstraint=eastwest;fontStyle=1;align=left;fontColor=#000000;" vertex="1" parent="ZzmtQTtpUodWMyB-p8XU-60">
          <mxGeometry y="20" width="289" height="25" as="geometry" />
        </mxCell>
        <mxCell id="ZzmtQTtpUodWMyB-p8XU-64" value="&lt;div&gt;&amp;nbsp;ProcessId : ULONG&lt;br&gt;&lt;/div&gt;" style="shape=partialRectangle;html=1;whiteSpace=wrap;connectable=0;fillColor=#E6D0DE;top=0;left=0;bottom=0;right=0;overflow=hidden;strokeColor=#001DBC;fontStyle=1;fontColor=#000000;align=left;" vertex="1" parent="ZzmtQTtpUodWMyB-p8XU-63">
          <mxGeometry width="289" height="25" as="geometry">
            <mxRectangle width="289" height="25" as="alternateBounds" />
          </mxGeometry>
        </mxCell>
        <mxCell id="ZzmtQTtpUodWMyB-p8XU-65" value="" style="shape=partialRectangle;html=1;whiteSpace=wrap;collapsible=0;dropTarget=0;pointerEvents=0;fillColor=#33FF33;top=0;left=0;bottom=0;right=0;points=[[0,0.5],[1,0.5]];portConstraint=eastwest;fontStyle=1;align=left;fontColor=#000000;" vertex="1" parent="ZzmtQTtpUodWMyB-p8XU-60">
          <mxGeometry y="45" width="289" height="20" as="geometry" />
        </mxCell>
        <mxCell id="ZzmtQTtpUodWMyB-p8XU-66" value="&amp;nbsp;ImagePathHash : ULONG" style="shape=partialRectangle;html=1;whiteSpace=wrap;connectable=0;fillColor=#E6D0DE;top=0;left=0;bottom=0;right=0;overflow=hidden;strokeColor=#001DBC;fontColor=#000000;fontStyle=1;align=left;" vertex="1" parent="ZzmtQTtpUodWMyB-p8XU-65">
          <mxGeometry width="289" height="20" as="geometry">
            <mxRectangle width="289" height="20" as="alternateBounds" />
          </mxGeometry>
        </mxCell>
        <mxCell id="ZzmtQTtpUodWMyB-p8XU-67" style="shape=partialRectangle;html=1;whiteSpace=wrap;collapsible=0;dropTarget=0;pointerEvents=0;fillColor=#33FF33;top=0;left=0;bottom=0;right=0;points=[[0,0.5],[1,0.5]];portConstraint=eastwest;fontStyle=1;align=left;fontColor=#000000;" vertex="1" parent="ZzmtQTtpUodWMyB-p8XU-60">
          <mxGeometry y="65" width="289" height="20" as="geometry" />
        </mxCell>
        <mxCell id="ZzmtQTtpUodWMyB-p8XU-68" value="&amp;nbsp;UniqueProcessHash : ULONG_PTR" style="shape=partialRectangle;html=1;whiteSpace=wrap;connectable=0;fillColor=#E6D0DE;top=0;left=0;bottom=0;right=0;overflow=hidden;strokeColor=#001DBC;fontStyle=1;fontColor=#000000;align=left;" vertex="1" parent="ZzmtQTtpUodWMyB-p8XU-67">
          <mxGeometry width="289" height="20" as="geometry">
            <mxRectangle width="289" height="20" as="alternateBounds" />
          </mxGeometry>
        </mxCell>
        <mxCell id="ZzmtQTtpUodWMyB-p8XU-69" value="&lt;div style=&quot;font-size: 12px;&quot;&gt;Structure&lt;/div&gt;&lt;div style=&quot;&quot;&gt;&lt;pre style=&quot;&quot;&gt;&lt;font face=&quot;Consolas&quot;&gt;&lt;font color=&quot;#1e1e1e&quot;&gt;PFS_PRIVATE_PAGE_SOURCE&lt;/font&gt;&lt;br&gt;&lt;/font&gt;&lt;/pre&gt;&lt;/div&gt;" style="text;strokeColor=none;fillColor=none;html=1;fontSize=12;fontStyle=1;verticalAlign=middle;align=center;" vertex="1" parent="1">
          <mxGeometry x="-1859" y="1240" width="230" height="25.491329479768783" as="geometry" />
        </mxCell>
        <mxCell id="ZzmtQTtpUodWMyB-p8XU-70" value="" style="endArrow=none;dashed=1;html=1;dashPattern=1 3;strokeWidth=2;rounded=1;fontSize=12;fontColor=#000000;exitX=1;exitY=0.5;exitDx=0;exitDy=0;entryX=0;entryY=0;entryDx=0;entryDy=0;" edge="1" parent="1" source="ZzmtQTtpUodWMyB-p8XU-25" target="ZzmtQTtpUodWMyB-p8XU-60">
          <mxGeometry width="50" height="50" relative="1" as="geometry">
            <mxPoint x="-1829.5700000000002" y="1272.08" as="sourcePoint" />
            <mxPoint x="-1576" y="1198" as="targetPoint" />
          </mxGeometry>
        </mxCell>
        <mxCell id="ZzmtQTtpUodWMyB-p8XU-71" value="" style="endArrow=none;dashed=1;html=1;dashPattern=1 3;strokeWidth=2;rounded=1;fontSize=12;fontColor=#000000;exitX=1;exitY=0.5;exitDx=0;exitDy=0;entryX=0;entryY=1;entryDx=0;entryDy=0;" edge="1" parent="1" source="ZzmtQTtpUodWMyB-p8XU-25" target="ZzmtQTtpUodWMyB-p8XU-60">
          <mxGeometry width="50" height="50" relative="1" as="geometry">
            <mxPoint x="-1829.1399999999999" y="1299.4699999999998" as="sourcePoint" />
            <mxPoint x="-1575" y="1256" as="targetPoint" />
          </mxGeometry>
        </mxCell>
        <mxCell id="ZzmtQTtpUodWMyB-p8XU-72" value="" style="edgeStyle=entityRelationEdgeStyle;startArrow=none;endArrow=none;segment=10;curved=1;rounded=0;strokeColor=#FF0000;strokeWidth=4;fontSize=12;fontColor=#000000;exitX=0;exitY=0.25;exitDx=0;exitDy=0;entryX=1;entryY=0.133;entryDx=0;entryDy=0;entryPerimeter=0;" edge="1" parent="1" source="ZzmtQTtpUodWMyB-p8XU-74" target="ZzmtQTtpUodWMyB-p8XU-60">
          <mxGeometry relative="1" as="geometry">
            <mxPoint x="-1450" y="1348" as="sourcePoint" />
            <mxPoint x="-1510" y="1308" as="targetPoint" />
            <Array as="points">
              <mxPoint x="-1400" y="1228" />
              <mxPoint x="-1400" y="1238" />
            </Array>
          </mxGeometry>
        </mxCell>
        <mxCell id="ZzmtQTtpUodWMyB-p8XU-73" value="&lt;span style=&quot;color: rgb(0, 0, 0); font-family: Helvetica; font-size: 12px; font-style: normal; font-variant-ligatures: normal; font-variant-caps: normal; font-weight: 400; letter-spacing: normal; orphans: 2; text-align: left; text-indent: 0px; text-transform: none; widows: 2; word-spacing: 0px; -webkit-text-stroke-width: 0px; background-color: rgb(251, 251, 251); text-decoration-thickness: initial; text-decoration-style: initial; text-decoration-color: initial; float: none; display: inline !important;&quot;&gt;Private Source Database Information&lt;/span&gt;" style="text;whiteSpace=wrap;html=1;" vertex="1" parent="1">
          <mxGeometry x="-1830" y="1353" width="230" height="40" as="geometry" />
        </mxCell>
        <mxCell id="ZzmtQTtpUodWMyB-p8XU-74" value="&lt;div&gt;//&lt;/div&gt;&lt;div&gt;// Superfetch Private Sources&lt;/div&gt;&lt;div&gt;//&lt;/div&gt;&lt;div&gt;typedef enum _PFS_PRIVATE_PAGE_SOURCE_TYPE {&lt;/div&gt;&lt;div&gt;&amp;nbsp; &amp;nbsp; PfsPrivateSourceKernel = 0,&lt;span style=&quot;&quot;&gt;&lt;/span&gt;&lt;/div&gt;&lt;div&gt;&lt;span style=&quot;&quot;&gt;&lt;span style=&quot;&quot;&gt;&lt;span style=&quot;white-space: pre;&quot;&gt;&amp;nbsp;&amp;nbsp;&amp;nbsp;&amp;nbsp;&lt;/span&gt;&lt;/span&gt;PfsPrivateSourceSession = 1,&lt;/span&gt;&lt;/div&gt;&lt;div&gt;&lt;span style=&quot;&quot;&gt;&lt;span style=&quot;white-space: pre;&quot;&gt;&amp;nbsp;&amp;nbsp;&amp;nbsp;&amp;nbsp;&lt;/span&gt;&lt;/span&gt;&lt;b&gt;&lt;font color=&quot;#ff0000&quot;&gt;PfsPrivateSourceProcess&lt;/font&gt;&lt;/b&gt; = 2,&lt;/div&gt;&lt;div&gt;&lt;span style=&quot;&quot;&gt;&lt;span style=&quot;&quot;&gt;&lt;span style=&quot;white-space: pre;&quot;&gt;&amp;nbsp;&amp;nbsp;&amp;nbsp;&amp;nbsp;&lt;/span&gt;&lt;/span&gt;PfsPrivateSourceMax = 3&lt;/span&gt;&lt;/div&gt;&lt;div&gt;} PFS_PRIVATE_PAGE_SOURCE_TYPE;&lt;/div&gt;" style="text;whiteSpace=wrap;html=1;" vertex="1" parent="1">
          <mxGeometry x="-1510" y="1173" width="230" height="180" as="geometry" />
        </mxCell>
        <mxCell id="ZzmtQTtpUodWMyB-p8XU-75" value="" style="shape=table;html=1;whiteSpace=wrap;startSize=0;container=1;collapsible=0;childLayout=tableLayout;fontStyle=1;align=left;fillColor=#33FFFF;strokeColor=#6c8ebf;fontColor=#000000;" vertex="1" parent="1">
          <mxGeometry x="-1890" y="1479.5" width="270" height="270" as="geometry" />
        </mxCell>
        <mxCell id="ZzmtQTtpUodWMyB-p8XU-76" value="" style="shape=partialRectangle;html=1;whiteSpace=wrap;collapsible=0;dropTarget=0;pointerEvents=0;fillColor=#33FFFF;top=0;left=0;bottom=0;right=0;points=[[0,0.5],[1,0.5]];portConstraint=eastwest;fontStyle=1;align=left;fontColor=#000000;" vertex="1" parent="ZzmtQTtpUodWMyB-p8XU-75">
          <mxGeometry width="270" height="30" as="geometry" />
        </mxCell>
        <mxCell id="ZzmtQTtpUodWMyB-p8XU-77" value="&amp;nbsp;ProcessLinks&amp;nbsp; &amp;nbsp; &amp;nbsp; &amp;nbsp; &amp;nbsp;: LIST_ENTRY" style="shape=partialRectangle;html=1;whiteSpace=wrap;connectable=0;fillColor=#B3FF66;top=0;left=0;bottom=0;right=0;overflow=hidden;strokeColor=#001DBC;fontColor=#000000;fontStyle=1;align=left;" vertex="1" parent="ZzmtQTtpUodWMyB-p8XU-76">
          <mxGeometry width="270" height="30" as="geometry">
            <mxRectangle width="270" height="30" as="alternateBounds" />
          </mxGeometry>
        </mxCell>
        <mxCell id="ZzmtQTtpUodWMyB-p8XU-78" value="" style="shape=partialRectangle;html=1;whiteSpace=wrap;collapsible=0;dropTarget=0;pointerEvents=0;fillColor=#33FFFF;top=0;left=0;bottom=0;right=0;points=[[0,0.5],[1,0.5]];portConstraint=eastwest;fontStyle=1;align=left;fontColor=#000000;" vertex="1" parent="ZzmtQTtpUodWMyB-p8XU-75">
          <mxGeometry y="30" width="270" height="30" as="geometry" />
        </mxCell>
        <mxCell id="ZzmtQTtpUodWMyB-p8XU-79" value="&amp;nbsp;ProcessKey&amp;nbsp; &amp;nbsp; &amp;nbsp; &amp;nbsp; &amp;nbsp; &amp;nbsp; &amp;nbsp;: ULONLONG" style="shape=partialRectangle;html=1;whiteSpace=wrap;connectable=0;fillColor=#B3FF66;top=0;left=0;bottom=0;right=0;overflow=hidden;strokeColor=#001DBC;fontStyle=1;fontColor=#000000;align=left;" vertex="1" parent="ZzmtQTtpUodWMyB-p8XU-78">
          <mxGeometry width="270" height="30" as="geometry">
            <mxRectangle width="270" height="30" as="alternateBounds" />
          </mxGeometry>
        </mxCell>
        <mxCell id="ZzmtQTtpUodWMyB-p8XU-80" value="" style="shape=partialRectangle;html=1;whiteSpace=wrap;collapsible=0;dropTarget=0;pointerEvents=0;fillColor=#33FFFF;top=0;left=0;bottom=0;right=0;points=[[0,0.5],[1,0.5]];portConstraint=eastwest;fontStyle=1;align=left;fontColor=#000000;" vertex="1" parent="ZzmtQTtpUodWMyB-p8XU-75">
          <mxGeometry y="60" width="270" height="30" as="geometry" />
        </mxCell>
        <mxCell id="ZzmtQTtpUodWMyB-p8XU-81" value="&amp;nbsp;ProcessName[16] &amp;nbsp; &amp;nbsp;: CHAR" style="shape=partialRectangle;html=1;whiteSpace=wrap;connectable=0;fillColor=#B3FF66;top=0;left=0;bottom=0;right=0;overflow=hidden;strokeColor=#001DBC;fontColor=#000000;fontStyle=1;align=left;" vertex="1" parent="ZzmtQTtpUodWMyB-p8XU-80">
          <mxGeometry width="270" height="30" as="geometry">
            <mxRectangle width="270" height="30" as="alternateBounds" />
          </mxGeometry>
        </mxCell>
        <mxCell id="ZzmtQTtpUodWMyB-p8XU-82" style="shape=partialRectangle;html=1;whiteSpace=wrap;collapsible=0;dropTarget=0;pointerEvents=0;fillColor=#33FFFF;top=0;left=0;bottom=0;right=0;points=[[0,0.5],[1,0.5]];portConstraint=eastwest;fontStyle=1;align=left;fontColor=#000000;" vertex="1" parent="ZzmtQTtpUodWMyB-p8XU-75">
          <mxGeometry y="90" width="270" height="30" as="geometry" />
        </mxCell>
        <mxCell id="ZzmtQTtpUodWMyB-p8XU-83" value="&amp;nbsp;ProcessPfnCount&amp;nbsp; &amp;nbsp; &amp;nbsp; &amp;nbsp; &amp;nbsp; &amp;nbsp; : ULONG" style="shape=partialRectangle;html=1;whiteSpace=wrap;connectable=0;fillColor=#B3FF66;top=0;left=0;bottom=0;right=0;overflow=hidden;strokeColor=#001DBC;fontStyle=1;fontColor=#000000;align=left;" vertex="1" parent="ZzmtQTtpUodWMyB-p8XU-82">
          <mxGeometry width="270" height="30" as="geometry">
            <mxRectangle width="270" height="30" as="alternateBounds" />
          </mxGeometry>
        </mxCell>
        <mxCell id="ZzmtQTtpUodWMyB-p8XU-84" style="shape=partialRectangle;html=1;whiteSpace=wrap;collapsible=0;dropTarget=0;pointerEvents=0;fillColor=#33FFFF;top=0;left=0;bottom=0;right=0;points=[[0,0.5],[1,0.5]];portConstraint=eastwest;fontStyle=1;align=left;fontColor=#000000;" vertex="1" parent="ZzmtQTtpUodWMyB-p8XU-75">
          <mxGeometry y="120" width="270" height="30" as="geometry" />
        </mxCell>
        <mxCell id="ZzmtQTtpUodWMyB-p8XU-85" value="&amp;nbsp;PrivatePages : ULONG" style="shape=partialRectangle;html=1;whiteSpace=wrap;connectable=0;fillColor=#B3FF66;top=0;left=0;bottom=0;right=0;overflow=hidden;strokeColor=#001DBC;fontStyle=1;fontColor=#000000;align=left;" vertex="1" parent="ZzmtQTtpUodWMyB-p8XU-84">
          <mxGeometry width="270" height="30" as="geometry">
            <mxRectangle width="270" height="30" as="alternateBounds" />
          </mxGeometry>
        </mxCell>
        <mxCell id="ZzmtQTtpUodWMyB-p8XU-86" style="shape=partialRectangle;html=1;whiteSpace=wrap;collapsible=0;dropTarget=0;pointerEvents=0;fillColor=#33FFFF;top=0;left=0;bottom=0;right=0;points=[[0,0.5],[1,0.5]];portConstraint=eastwest;fontStyle=1;align=left;fontColor=#000000;" vertex="1" parent="ZzmtQTtpUodWMyB-p8XU-75">
          <mxGeometry y="150" width="270" height="30" as="geometry" />
        </mxCell>
        <mxCell id="ZzmtQTtpUodWMyB-p8XU-87" value="&amp;nbsp;ProcessId : HANDLE" style="shape=partialRectangle;html=1;whiteSpace=wrap;connectable=0;fillColor=#B3FF66;top=0;left=0;bottom=0;right=0;overflow=hidden;strokeColor=#001DBC;fontStyle=1;fontColor=#000000;align=left;" vertex="1" parent="ZzmtQTtpUodWMyB-p8XU-86">
          <mxGeometry width="270" height="30" as="geometry">
            <mxRectangle width="270" height="30" as="alternateBounds" />
          </mxGeometry>
        </mxCell>
        <mxCell id="ZzmtQTtpUodWMyB-p8XU-88" style="shape=partialRectangle;html=1;whiteSpace=wrap;collapsible=0;dropTarget=0;pointerEvents=0;fillColor=#33FFFF;top=0;left=0;bottom=0;right=0;points=[[0,0.5],[1,0.5]];portConstraint=eastwest;fontStyle=1;align=left;fontColor=#000000;" vertex="1" parent="ZzmtQTtpUodWMyB-p8XU-75">
          <mxGeometry y="180" width="270" height="30" as="geometry" />
        </mxCell>
        <mxCell id="ZzmtQTtpUodWMyB-p8XU-89" value="&amp;nbsp;SessionId : ULONG" style="shape=partialRectangle;html=1;whiteSpace=wrap;connectable=0;fillColor=#B3FF66;top=0;left=0;bottom=0;right=0;overflow=hidden;strokeColor=#001DBC;fontStyle=1;fontColor=#000000;align=left;" vertex="1" parent="ZzmtQTtpUodWMyB-p8XU-88">
          <mxGeometry width="270" height="30" as="geometry">
            <mxRectangle width="270" height="30" as="alternateBounds" />
          </mxGeometry>
        </mxCell>
        <mxCell id="ZzmtQTtpUodWMyB-p8XU-90" value="" style="shape=partialRectangle;html=1;whiteSpace=wrap;collapsible=0;dropTarget=0;pointerEvents=0;fillColor=#33FFFF;top=0;left=0;bottom=0;right=0;points=[[0,0.5],[1,0.5]];portConstraint=eastwest;fontStyle=1;align=left;fontColor=#000000;" vertex="1" parent="ZzmtQTtpUodWMyB-p8XU-75">
          <mxGeometry y="210" width="270" height="30" as="geometry" />
        </mxCell>
        <mxCell id="ZzmtQTtpUodWMyB-p8XU-91" value="&amp;nbsp;ProcessHandle : HANDLE" style="shape=partialRectangle;html=1;whiteSpace=wrap;connectable=0;fillColor=#B3FF66;top=0;left=0;bottom=0;right=0;overflow=hidden;strokeColor=#001DBC;fontColor=#000000;fontStyle=1;align=left;" vertex="1" parent="ZzmtQTtpUodWMyB-p8XU-90">
          <mxGeometry width="270" height="30" as="geometry">
            <mxRectangle width="270" height="30" as="alternateBounds" />
          </mxGeometry>
        </mxCell>
        <mxCell id="ZzmtQTtpUodWMyB-p8XU-92" value="" style="shape=partialRectangle;html=1;whiteSpace=wrap;collapsible=0;dropTarget=0;pointerEvents=0;fillColor=#33FFFF;top=0;left=0;bottom=0;right=0;points=[[0,0.5],[1,0.5]];portConstraint=eastwest;fontStyle=1;align=left;fontColor=#000000;" vertex="1" parent="ZzmtQTtpUodWMyB-p8XU-75">
          <mxGeometry y="240" width="270" height="30" as="geometry" />
        </mxCell>
        <mxCell id="ZzmtQTtpUodWMyB-p8XU-93" value="&amp;nbsp;ProcessPfns[ANYSIZE_ARRAY]&amp;nbsp;: ULONG" style="shape=partialRectangle;html=1;whiteSpace=wrap;connectable=0;fillColor=#B3FF66;top=0;left=0;bottom=0;right=0;overflow=hidden;strokeColor=#001DBC;fontStyle=1;fontColor=#000000;align=left;" vertex="1" parent="ZzmtQTtpUodWMyB-p8XU-92">
          <mxGeometry width="270" height="30" as="geometry">
            <mxRectangle width="270" height="30" as="alternateBounds" />
          </mxGeometry>
        </mxCell>
        <mxCell id="ZzmtQTtpUodWMyB-p8XU-94" value="&lt;div style=&quot;font-size: 12px;&quot;&gt;Structure&lt;br&gt;&lt;pre style=&quot;font-family: Consolas; font-size: 12px;&quot;&gt;PPF_PROCESS&lt;br&gt;&lt;/pre&gt;&lt;/div&gt;" style="text;strokeColor=none;fillColor=none;html=1;fontSize=12;fontStyle=1;verticalAlign=middle;align=center;" vertex="1" parent="1">
          <mxGeometry x="-1820" y="1426.5" width="170" height="70" as="geometry" />
        </mxCell>
        <mxCell id="ZzmtQTtpUodWMyB-p8XU-95" value="" style="endArrow=none;dashed=1;html=1;dashPattern=1 3;strokeWidth=2;rounded=1;fontSize=12;fontColor=#000000;exitX=1;exitY=0.5;exitDx=0;exitDy=0;entryX=0;entryY=0;entryDx=0;entryDy=0;" edge="1" parent="1" source="ZzmtQTtpUodWMyB-p8XU-27" target="ZzmtQTtpUodWMyB-p8XU-75">
          <mxGeometry width="50" height="50" relative="1" as="geometry">
            <mxPoint x="-1830.4299999999998" y="1302.23" as="sourcePoint" />
            <mxPoint x="-1509" y="1228" as="targetPoint" />
          </mxGeometry>
        </mxCell>
        <mxCell id="ZzmtQTtpUodWMyB-p8XU-96" value="" style="endArrow=none;dashed=1;html=1;dashPattern=1 3;strokeWidth=2;rounded=1;fontSize=12;fontColor=#000000;exitX=1;exitY=0.5;exitDx=0;exitDy=0;entryX=0;entryY=1;entryDx=0;entryDy=0;" edge="1" parent="1" source="ZzmtQTtpUodWMyB-p8XU-27" target="ZzmtQTtpUodWMyB-p8XU-75">
          <mxGeometry width="50" height="50" relative="1" as="geometry">
            <mxPoint x="-1829.5700000000002" y="1327.6100000000001" as="sourcePoint" />
            <mxPoint x="-1500" y="1355" as="targetPoint" />
          </mxGeometry>
        </mxCell>
        <mxCell id="ZzmtQTtpUodWMyB-p8XU-97" value="Build the global variable : MmPrivateSources" style="shape=document;whiteSpace=wrap;html=1;boundedLbl=1;" vertex="1" parent="1">
          <mxGeometry x="-2770" y="1386.99" width="190" height="50" as="geometry" />
        </mxCell>
      </root>
    </mxGraphModel>
  </diagram>
</mxfile>
